<?xml version="1.0" standalone="no"?>
<!DOCTYPE svg PUBLIC "-//W3C//DTD SVG 20010904//EN"
 "http://www.w3.org/TR/2001/REC-SVG-20010904/DTD/svg10.dtd">
<svg version="1.0" xmlns="http://www.w3.org/2000/svg"
 width="1126.000000pt" height="1126.000000pt" viewBox="0 0 1126.000000 1126.000000"
 preserveAspectRatio="xMidYMid meet">

<g transform="translate(0.000000,1126.000000) scale(0.100000,-0.100000)"
fill="#000000" stroke="none">
<path d="M5300 11243 c-1093 -64 -2156 -452 -3035 -1110 -512 -382 -965 -860
-1316 -1388 -509 -765 -813 -1611 -916 -2545 -26 -238 -26 -903 0 -1140 124
-1112 523 -2089 1200 -2938 513 -644 1144 -1154 1887 -1525 382 -192 745 -326
1150 -426 477 -118 859 -164 1360 -164 501 0 884 46 1358 164 2247 556 3931
2450 4221 4744 34 275 44 476 38 819 -5 322 -17 476 -58 746 -316 2084 -1789
3824 -3800 4490 -426 142 -914 236 -1389 270 -132 9 -565 11 -700 3z m875
-407 c1094 -127 2045 -540 2855 -1238 164 -142 454 -433 579 -583 154 -184
391 -509 379 -520 -2 -3 -699 -288 -1548 -635 -848 -346 -1545 -632 -1547
-634 -7 -7 345 -861 354 -859 4 1 522 211 1151 468 629 257 1145 465 1148 463
2 -2 -287 -962 -641 -2133 -355 -1170 -645 -2135 -645 -2144 0 -16 357 -900
369 -913 3 -4 276 103 605 238 329 134 601 242 603 240 3 -3 -24 -42 -58 -88
-249 -327 -577 -662 -908 -927 -92 -73 -117 -88 -123 -76 -12 21 -617 1477
-700 1685 -188 469 -315 848 -369 1098 -29 136 -37 418 -15 522 53 250 255
438 532 495 87 18 281 20 389 4 42 -6 78 -9 82 -6 6 7 -42 1125 -49 1132 -2 2
-62 9 -133 15 -229 20 -483 -17 -690 -99 -233 -93 -408 -245 -510 -442 -56
-109 -123 -310 -161 -481 -15 -70 -29 -127 -30 -125 -1 1 -50 121 -109 267
-59 146 -111 272 -116 281 -7 14 -79 -12 -526 -193 -285 -116 -522 -214 -526
-218 -4 -4 410 -1028 922 -2276 511 -1248 931 -2276 933 -2284 6 -30 -444
-192 -747 -268 -479 -122 -903 -169 -1410 -159 -378 8 -668 41 -1019 118
-1132 248 -2182 898 -2914 1802 l-96 119 23 66 c13 37 50 140 83 229 l60 163
1641 -2 1640 -3 351 -925 c193 -509 355 -931 359 -937 6 -10 200 -13 913 -13
858 0 905 1 900 18 -3 9 -746 1864 -1650 4122 l-1645 4105 -889 3 -890 2 -54
-137 c-29 -76 -445 -1147 -923 -2379 -479 -1233 -872 -2240 -873 -2239 -12 11
-66 333 -86 515 -95 840 21 1712 331 2495 422 1066 1188 1968 2173 2559 655
394 1432 649 2180 716 63 5 133 12 155 14 101 10 767 -4 890 -18z m-2351
-4993 c306 -815 556 -1485 556 -1488 0 -3 -497 -5 -1105 -5 -608 0 -1105 3
-1105 8 0 20 1086 2980 1091 2974 4 -4 257 -674 563 -1489z m6860 1070 c236
-969 201 -1954 -102 -2882 l-48 -146 -495 -202 c-271 -112 -497 -202 -501
-200 -3 1 239 810 538 1797 578 1908 551 1820 558 1820 2 0 25 -84 50 -187z
m-1880 -5622 c31 -73 56 -137 56 -141 0 -6 -1042 -433 -1078 -442 -7 -2 -25
25 -42 66 -16 38 -29 70 -27 71 1 1 54 26 117 54 128 58 367 185 505 269 110
66 383 251 391 264 10 17 21 -3 78 -141z"/>
</g>
</svg>
